<?xml version="1.0" encoding="utf-8"?>
<!-- Generator: Adobe Illustrator 15.1.0, SVG Export Plug-In  -->
<!DOCTYPE svg PUBLIC "-//W3C//DTD SVG 1.1//EN" "http://www.w3.org/Graphics/SVG/1.1/DTD/svg11.dtd" [
	<!ENTITY ns_flows "http://ns.adobe.com/Flows/1.0/">
]>
<svg version="1.1"
	 xmlns="http://www.w3.org/2000/svg" xmlns:xlink="http://www.w3.org/1999/xlink" xmlns:a="http://ns.adobe.com/AdobeSVGViewerExtensions/3.0/"
	 x="0px" y="0px" width="1908px" height="774px" viewBox="-217.445 -86.091 1908 774"
	 overflow="visible" enable-background="new -217.445 -86.091 1908 774" xml:space="preserve">
<defs>
</defs>
<path fill-rule="evenodd" clip-rule="evenodd" fill="#FFFFFF" d="M239.254,146.268c132.489-5.343,247.77,14.967,356,38
	c47.17,10.039,88.67,25.437,143.999,22c27.883-1.732,55.896-9.934,84-15c82.687-14.906,167.868-30.587,261-34
	c-106.46,13.655-212.717,25.097-314,47c-35.721,7.725-69.853,7.479-106.999-1c-63.845-14.572-129.409-32.04-200-41
	C392.044,153.229,317.879,150.802,239.254,146.268z"/>
<path fill-rule="evenodd" clip-rule="evenodd" fill="#3a3a3a" d="M210.535,130.344c-27.41-0.202-166.485-1.656-197.281,5.923
	c5.207-2.613,9.848,1.266,7,1c40.231,3.751,81.367-2.421,122-1c41.052,1.436,80.945,0.818,120,3c-3.8-1.534-9.005-1.662-14-2
	c124.281,0.222,242.442,17.323,351,39c45.852,9.156,84.783,27.432,137.999,23c23.049-1.919,46.446-8.754,70-13
	c69.938-12.607,143.364-26.717,221-33c133.925-10.838,286.501-10.15,413.001,3c-0.232-3.456-9.361-6.623-15-8
	c36.906-2.601,21.438,37.77,15,65c-3.201,13.546-5.119,33.173-12,39c-5.615,4.756-20.576,6.921-27,12
	c-25.064,19.818-37.01,69.898-50.001,100c-30.192,69.961-66.87,132.561-130,169c-31.305,18.07-70.067,30.698-109,40
	c-21.782,5.204-47.508,4.839-73,4c-17.306-0.569-32.079-1.847-49-5c-7.875-1.468-13.435-3.184-22.425-5.138
	c-8.625-1.875-14.551-4.266-21.75-6.5c-50.75-15.75-90.344-41.145-117.825-84.362c-21.867-34.391-37.475-77.964-51-122
	c-4.136-13.469-6.717-29.718-17-40c-15.574-15.574-61.944-18.423-80.999-4c-21.869,16.553-26.771,65.056-36,90
	c-22.799,61.625-52.599,112.125-112,139c-25.716,11.634-53.681,15.602-87,23c-3.518,0.781-10.277,1.722-14,2
	c-18.8,1.405-35.964,0.943-55-1c-20.131-2.055-28.792-2.939-49-8c-2.787-0.698-8.225-2.238-11-3c-17.801-4.888-36.688-9.083-53-16
	c-98.668-41.843-142.149-133.234-184-234c-7.476-18-18.102-45.175-34-56c-5.698-3.88-20.402-5.676-26-12
	c-5.126-5.79-8.133-26.963-11-38c-3.633-13.981-9.553-27.529-8-41c0.668-5.802,5.598-17.913,11-21c5.891-3.366,11.742-1.069,23-4
	c13.838-3.603,28.254-14.815,42-22c85.862-44.88,170.323-86.117,289-99c18.672-2.027,37.043-7.55,56-9
	c39.915-3.054,60.243,20.596,82,41c46.277,43.4,85.066,78.146,124,131c-23.267-2.284-48.493-8.87-74-14
	c-8.21-1.651-18.07-1.854-24-5c-8.693-4.611-14.273-18.919-20-27c-13.928-19.652-26.715-34.636-40-54
	c-9.956-14.511-16.305-33.088-45-30c-11.628,1.251-23.555,7.938-31,13c-15.396,10.468-33.181,27.247-43,40
	c0.304-0.396,0.587,1.348,0,2c-3.058,3.397-12.103,14.426-18,18c-6.499,3.938-17.193,5.682-27,8c-8.746,2.067-18.271,5.862-27,7
	c-18.669,2.433-40.955,0.85-62.077,0.122C215.992,130.383,213.363,130.365,210.535,130.344z M463.254,162.268
	c70.591,8.96,136.155,26.428,200,41c37.146,8.479,71.278,8.725,106.999,1c101.283-21.903,207.54-33.345,314-47
	c-93.132,3.413-178.313,19.094-261,34c-28.104,5.066-56.117,13.268-84,15c-55.329,3.437-96.829-11.961-143.999-22
	c-108.23-23.033-223.511-43.343-356-38C317.879,150.802,392.044,153.229,463.254,162.268z M445.254,187.268
	c0.329,0.025,0.672-0.039,1,0c-6.518-0.768-22.147-2.101-34-3c-62.229-4.719-125.264-9.342-193-7c-54.047,1.869-94.695,4.943-95,57
	c-0.281,48.059,13.598,93.341,29,134c17.545,46.317,38.532,84.306,73,112c3.604,2.896,7.094,8.071,10,10
	c15.107,10.027,36.489,18.345,58,25c62.157,19.232,155.803,27.706,217,1c60.635-26.461,86.951-79.936,102-153
	c10.003-48.57,20.567-111.092-18.806-134.297c-3.083-1.817-6.601-4.076-10.194-5.703c-5.36-2.427-7.928-3.966-12-6
	C546.954,204.63,480.665,189.954,445.254,187.268z M976.253,196.268c-51.659,7.743-110.731,18.814-138,42
	c-5.142,4.373-12.037,12.106-17,24c-7.348,17.613-4.812,41.307-3,59c1.87,18.24,5.512,36.78,9,52
	c22.224,96.934,71.996,156.21,174,168c69.12,7.989,134.659,0.242,189-24c51.779-23.099,80.529-64.967,102-117
	c10.069-24.398,19.195-53.001,25-84c5.007-26.728,13.452-73.125,3-97c-17.884-40.853-120.691-37.327-174-35
	C1086.102,186.893,1034.922,187.475,976.253,196.268z M44.254,195.268c0.923-0.412,3.033,0.264,3,1c-5.26-0.26-9.317,0.683-13,2
	c13,12.621,47.062,20.647,67,11C92.714,197.534,59.05,188.66,44.254,195.268z M1348.253,222.268c19.823,9.65,55.333,2.89,68.001-10
	C1397.133,204.248,1356.812,204.738,1348.253,222.268z"/>
<path fill-rule="evenodd" clip-rule="evenodd" fill="#3a3a3a" d="M1420.254,145.268c-66.977-2.101-141.099-8-215.001-8c-29.11,0-65.735,6.512-85-3
	c-9.021-4.455-15.196-13.681-23-22c-19.032-20.294-47.713-47.573-83-51c-28.267-2.745-38.478,12.098-52,28
	c-14.749,17.346-27.106,30.009-42,48c-6.394,7.726-13.03,20.564-20,24c-6.18,3.047-16.963,2.463-26,4
	c-24.157,4.11-51.397,10.841-75,13c3.063-22.05,21.481-34.938,36-48c29.07-26.154,59.8-51.176,93-75
	c21.591-15.493,41.364-33.121,72-36c20.462-1.923,40.241,4.825,62,8c20.831,3.04,42.774,5.208,60,8
	c36.378,5.895,71.853,13.495,106,25c34.407,11.591,66.971,25.295,98,40C1358.49,115.543,1389.51,131.179,1420.254,145.268z"/>
<path fill-rule="evenodd" clip-rule="evenodd" fill="#FFFFFF" d="M101.254,209.268c-19.938,9.647-54,1.621-67-11
	c3.683-1.317,7.74-2.26,13-2c0.033-0.736-2.077-1.412-3-1C59.05,188.66,92.714,197.534,101.254,209.268z"/>
<path fill-rule="evenodd" clip-rule="evenodd" fill="#FFFFFF" d="M1416.254,212.268c-12.668,12.89-48.178,19.65-68.001,10
	C1356.812,204.738,1397.133,204.248,1416.254,212.268z"/>
</svg>
